<svg version="1.1" width="1000" height="500.0" xmlns="http://www.w3.org/2000/svg">
<line x1="500.0" y1="50" x2="300.0" y2="100" stroke="black" />
<line x1="300.0" y1="100" x2="225.0" y2="150" stroke="black" />
<line x1="225.0" y1="150" x2="175.0" y2="200" stroke="black" />
<line x1="225.0" y1="150" x2="275.0" y2="200" stroke="black" />
<line x1="300.0" y1="100" x2="400.0" y2="150" stroke="black" />
<line x1="400.0" y1="150" x2="375.0" y2="200" stroke="black" />
<line x1="500.0" y1="50" x2="725.0" y2="100" stroke="black" />
<line x1="725.0" y1="100" x2="600.0" y2="150" stroke="black" />
<line x1="600.0" y1="150" x2="525.0" y2="200" stroke="black" />
<line x1="600.0" y1="150" x2="675.0" y2="200" stroke="black" />
<line x1="675.0" y1="200" x2="625.0" y2="250" stroke="black" />
<line x1="675.0" y1="200" x2="725.0" y2="250" stroke="black" />
<line x1="725.0" y1="100" x2="825.0" y2="150" stroke="black" />
<circle cx="175.0" cy="200" r="10" fill="black" />
<circle cx="275.0" cy="200" r="10" fill="black" />
<circle cx="225.0" cy="150" r="10" fill="black" />
<circle cx="375.0" cy="200" r="10" fill="black" />
<circle cx="400.0" cy="150" r="10" fill="black" />
<circle cx="300.0" cy="100" r="10" fill="black" />
<circle cx="525.0" cy="200" r="10" fill="black" />
<circle cx="625.0" cy="250" r="10" fill="black" />
<circle cx="725.0" cy="250" r="10" fill="black" />
<circle cx="675.0" cy="200" r="10" fill="black" />
<circle cx="600.0" cy="150" r="10" fill="black" />
<circle cx="825.0" cy="150" r="10" fill="black" />
<circle cx="725.0" cy="100" r="10" fill="black" />
<circle cx="500.0" cy="50" r="10" fill="black" />
</svg>